<svg xmlns="http://www.w3.org/2000/svg" width="1005" height="226" viewBox="25 0 1005 226" version="1.1">
	<path fill-opacity="0.314" d="M 833 49.993 L 833 94.987 826.250 90.345 C 815.037 82.634, 804.746 78.880, 791 77.487 C 783.276 76.704, 769.850 78.373, 761.500 81.154 C 753.161 83.931, 741.650 91.313, 734.481 98.481 C 718.734 114.229, 711.502 134.945, 714.013 157.111 C 716.822 181.915, 731.645 202.771, 754.500 214.078 C 788.753 231.024, 832.487 215.560, 849.509 180.485 C 856.264 166.565, 856.106 168.708, 856.713 82.750 L 857.262 5 845.131 5 L 833 5 833 49.993 M 0 89 L 0 102 11.500 102 L 23 102 23 89 L 23 76 11.500 76 L 0 76 0 89 M 944.500 78.480 C 934.630 80.313, 927.042 83.415, 918.572 89.080 C 891.936 106.896, 880.521 138.055, 889.161 169.368 C 895.484 192.287, 915.943 211.975, 939.766 218.068 C 946.371 219.757, 950.931 220, 976.053 220 C 1001.331 220, 1004.859 219.810, 1005.393 218.418 C 1005.727 217.548, 1005.964 211.586, 1005.921 205.168 C 1005.878 198.751, 1005.615 194.063, 1005.338 194.750 C 1004.584 196.618, 951.438 196.492, 944.350 194.605 C 936.439 192.499, 929.601 188.295, 923.141 181.568 C 913.151 171.165, 909.316 160.704, 910.232 146.359 C 910.524 141.793, 911.660 136.085, 912.944 132.736 C 917.387 121.148, 927.933 110.570, 939.760 105.841 C 945.214 103.659, 946.980 103.528, 975.250 103.206 L 1005 102.866 1005 89.933 L 1005 77 978.250 77.090 C 960.941 77.149, 949.030 77.639, 944.500 78.480 M 264.500 78.649 C 238.003 82.892, 215.308 101.379, 206.291 126.064 L 203.575 133.500 203.231 177.782 L 202.886 222.064 214.693 221.782 L 226.500 221.500 227.015 179.500 C 227.572 134.071, 227.506 134.638, 233.436 124.519 C 236.399 119.463, 245.066 111.198, 251 107.770 C 261.448 101.735, 276.991 100.209, 289.299 104.011 C 300.223 107.385, 311.541 117.112, 316.884 127.720 C 321.655 137.192, 322 140.897, 322 182.710 L 322 222 334 222 L 346 222 346 180.660 C 346 143.079, 345.824 138.633, 344.068 131.766 C 337.869 107.527, 317.600 86.994, 293.427 80.466 C 287.451 78.852, 270.055 77.760, 264.500 78.649 M 431.998 79.485 C 405.215 84.829, 382.019 107.552, 376.429 133.923 C 374.647 142.330, 374.641 157.645, 376.416 166 C 381.228 188.647, 401.155 211.013, 422.624 217.862 C 434.210 221.558, 440.154 221.988, 479.750 221.994 L 518 222 518 210 L 518 198 479.549 198 C 455.234 198, 439.150 197.592, 435.799 196.890 C 422.591 194.125, 408.732 183.095, 403.003 170.788 C 390.724 144.412, 403.378 114.676, 431.054 104.869 C 437.278 102.663, 438.883 102.572, 477.750 102.205 L 518 101.826 518 89.913 L 518 78 478.250 78.094 C 450.029 78.161, 436.614 78.564, 431.998 79.485 M 86 80.507 C 64.075 85.852, 44.261 103.823, 36.392 125.501 C 29.295 145.054, 31.506 168.679, 42.123 186.723 C 46.443 194.066, 59.888 207.530, 67.184 211.821 C 83.888 221.644, 107.214 224.040, 126.322 217.896 C 143.460 212.386, 162.095 194.481, 169.079 176.816 C 175.461 160.674, 175.435 139.262, 169.014 123.020 C 163.686 109.543, 149.261 93.538, 136.305 86.730 C 125.495 81.049, 116.513 78.986, 103.020 79.083 C 96.684 79.129, 89.025 79.770, 86 80.507 M 600.916 80.522 C 576.585 86.430, 554.891 108.294, 548.847 133 C 546.892 140.993, 547.198 160.923, 549.401 169 C 555.338 190.778, 575.081 211.576, 595.975 218.063 C 614.823 223.916, 636.807 221.685, 653 212.276 C 662.866 206.544, 675.679 193.233, 680.700 183.500 C 686.678 171.912, 688.360 164.737, 688.435 150.500 C 688.511 136.102, 687.303 130.624, 681.275 118.032 C 677.371 109.875, 675.480 107.313, 667.622 99.532 C 652.466 84.526, 638.761 78.924, 617.590 79.083 C 611.491 79.129, 603.987 79.777, 600.916 80.522 M 772 103.814 C 763.396 106.063, 757.696 109.539, 750.866 116.700 C 732.208 136.265, 732.425 164.627, 751.379 183.556 C 777.441 209.583, 821.134 197.298, 830.508 161.307 C 834.830 144.715, 830.360 129.199, 817.580 116.423 C 804.522 103.371, 789.546 99.228, 772 103.814 M 91.698 105.035 C 76.125 108.947, 62.636 122.084, 58.498 137.368 C 57.215 142.109, 56.864 146.377, 57.161 153.647 C 57.677 166.308, 61.104 174.264, 69.775 182.935 C 81.550 194.710, 98.734 199.664, 114.888 195.939 C 126.284 193.312, 139.885 183.167, 145.215 173.319 C 152.279 160.267, 152.971 144.104, 147.017 131.187 C 142.741 121.912, 133.057 112.325, 123.393 107.803 C 117.332 104.967, 115.511 104.605, 106.060 104.357 C 100.252 104.205, 93.789 104.510, 91.698 105.035 M 603.798 105.931 C 580.332 113.434, 566.946 136.793, 572.124 161.201 C 573.784 169.024, 577.529 175.682, 584.141 182.568 C 590.812 189.515, 596.993 193.242, 605.535 195.467 C 633.097 202.646, 660.660 184.967, 665.126 157.246 C 668.707 135.013, 654.693 112.674, 632.909 105.895 C 624.930 103.411, 611.626 103.428, 603.798 105.931 M 774.222 128.537 C 762.312 134.562, 757.688 148.345, 763.436 160.690 C 767.581 169.592, 776.526 174.564, 787.029 173.804 C 794.709 173.249, 801.374 169.183, 805.474 162.552 C 808.152 158.219, 808.500 156.777, 808.500 150 C 808.500 143.223, 808.152 141.781, 805.474 137.448 C 798.911 126.834, 785.275 122.945, 774.222 128.537 M 950.314 139.950 C 946.317 142.387, 944.990 144.833, 945.035 149.684 C 945.079 154.403, 946.752 157.538, 950.567 160.054 C 953.203 161.791, 955.401 161.987, 972.250 161.993 L 991 162 991 150 L 991 138 972.250 138.004 C 955.448 138.007, 953.169 138.209, 950.314 139.950 M 1 207 L 1 219 12 219 L 23 219 23 207 L 23 195 12 195 L 1 195 1 207 M 1.762 225.707 C 3.006 225.946, 4.806 225.937, 5.762 225.687 C 6.718 225.437, 5.700 225.241, 3.500 225.252 C 1.300 225.263, 0.518 225.468, 1.762 225.707 M 12.750 225.737 C 15.638 225.939, 20.363 225.939, 23.250 225.737 C 26.138 225.535, 23.775 225.370, 18 225.370 C 12.225 225.370, 9.863 225.535, 12.750 225.737 " stroke="none" fill="black" fill-rule="evenodd"/>
	<path fill-opacity="0.148" d="M 832.760 50.003 L 832.500 95.005 827.500 91.386 C 814.714 82.133, 800.693 77.594, 785 77.631 C 764.530 77.678, 750.108 83.813, 734.896 98.946 C 726.924 106.877, 724.589 109.944, 721.156 117 C 715.404 128.821, 713.872 135.440, 713.865 148.500 C 713.855 166.084, 718.104 178.959, 728.466 192.743 C 750.742 222.377, 792.804 229.777, 823.508 209.464 C 836.565 200.826, 847.287 187.460, 852.359 173.500 C 855.018 166.182, 855.333 163.880, 856.057 146.500 C 856.492 136.050, 856.882 99.938, 856.924 66.250 L 857 5 845.010 5 L 833.020 5 832.760 50.003 M 0 88.967 L 0 102 11.530 102 L 23.060 102 22.780 89.250 L 22.500 76.500 11.250 76.217 L 0 75.934 0 88.967 M 947.315 78.008 C 938.938 79.232, 928.971 82.662, 922 86.718 C 914.055 91.341, 900.678 104.534, 896.179 112.184 C 888.418 125.382, 884.979 142.082, 886.916 157.179 C 889.464 177.049, 898.169 192.495, 913.873 205.011 C 921.062 210.741, 926.606 213.765, 936.022 217.090 C 942.122 219.245, 944.300 219.401, 973.393 219.767 C 998.304 220.080, 1004.449 219.898, 1005.128 218.827 C 1005.591 218.097, 1005.969 212.100, 1005.969 205.500 C 1005.969 198.776, 1005.605 194.074, 1005.141 194.806 C 1004.483 195.844, 998.173 196.049, 974.351 195.806 L 944.388 195.500 936.629 191.663 C 926.328 186.570, 918.931 179.154, 914.136 169.115 C 910.580 161.667, 910.500 161.237, 910.500 149.500 C 910.500 137.716, 910.567 137.360, 914.215 129.720 C 920.343 116.886, 930.982 107.978, 944.500 104.361 C 948.100 103.398, 957.272 103.020, 977.250 103.012 L 1005 103 1005 90 L 1005 77 978.750 77.125 C 964.313 77.193, 950.167 77.591, 947.315 78.008 M 262.763 78.964 C 247.317 81.789, 236.104 87.857, 223.936 99.975 C 213.075 110.792, 208.228 118.878, 204.972 131.609 C 203.165 138.673, 203 142.789, 203 180.692 L 203 222.063 214.750 221.782 L 226.500 221.500 227 179 L 227.500 136.500 230.727 129.688 C 235.276 120.083, 244.279 110.960, 253.900 106.205 C 261.388 102.504, 261.410 102.500, 274.448 102.500 C 287.183 102.500, 287.664 102.580, 294.246 105.799 C 304.443 110.786, 312.154 118.489, 317.259 128.788 L 321.500 137.343 322 179.422 L 322.500 221.500 334.250 221.782 L 346 222.063 345.985 180.782 C 345.969 135.087, 345.713 132.633, 339.612 119.668 C 330.591 100.500, 312.720 85.773, 291.500 80.023 C 286.052 78.546, 268.571 77.902, 262.763 78.964 M 434.763 79.033 C 409.673 83.258, 386.373 103.202, 378.293 127.369 C 375.845 134.693, 375.572 136.938, 375.540 150 C 375.506 163.714, 375.672 164.967, 378.587 173.118 C 386.544 195.359, 405.699 213.227, 428.500 219.678 C 433.594 221.119, 440.805 221.433, 476.250 221.756 L 518 222.137 518 210.069 L 518 198 479.636 198 C 458.274 198, 438.886 197.556, 435.886 196.998 C 423.092 194.619, 409.544 183.963, 403.110 171.217 C 388.685 142.642, 407.467 107.130, 439.183 103.012 C 443.207 102.489, 462.587 102.048, 482.250 102.031 L 518 102 518 90 L 518 78 478.750 78.118 C 457.163 78.182, 437.369 78.594, 434.763 79.033 M 86.500 80.427 C 72.146 84.460, 63.083 89.828, 52.500 100.567 C 44.411 108.774, 39.870 115.923, 36.392 125.922 C 29.531 145.650, 31.578 168.679, 41.724 185.916 C 46.318 193.723, 57.439 205.266, 65.305 210.395 C 77.931 218.627, 94.251 222.349, 111.204 220.863 C 138.421 218.476, 162.364 198.164, 171.158 170 C 174.520 159.232, 174.520 140.768, 171.158 130 C 167.155 117.179, 162.435 109.374, 153.016 100 C 143.528 90.557, 136.760 86.137, 125.835 82.247 C 119.575 80.019, 116.521 79.591, 105 79.329 C 95.603 79.115, 89.980 79.449, 86.500 80.427 M 604.500 79.625 C 596.593 81.609, 588.479 84.808, 582.500 88.298 C 574.139 93.178, 561.825 105.302, 557.123 113.284 C 543.969 135.612, 543.969 164.388, 557.123 186.716 C 561.557 194.243, 573.916 206.621, 581.702 211.333 C 603.127 224.299, 631.763 224.576, 653 212.023 C 688.930 190.785, 699.762 144.724, 676.874 110.504 C 668.137 97.441, 655.349 87.414, 640.835 82.247 C 634.528 80.002, 631.608 79.600, 620 79.380 C 612.575 79.239, 605.600 79.349, 604.500 79.625 M 772.105 103.583 C 751.814 109.039, 737 128.627, 737 150 C 737 173.089, 754.812 193.730, 777.500 196.933 C 806.593 201.040, 832 178.769, 832 149.161 C 832 142.446, 829.897 133.679, 826.857 127.720 C 823.922 121.966, 813.009 110.867, 807.153 107.680 C 797.083 102.199, 783.259 100.583, 772.105 103.583 M 88.762 105.942 C 76.794 109.768, 66.197 119.141, 60.685 130.777 C 57.594 137.301, 57.500 137.900, 57.500 151 C 57.500 164.010, 57.609 164.716, 60.500 170.453 C 66.530 182.419, 78.419 192.342, 90.460 195.458 C 113.483 201.416, 136.415 191.102, 146.782 170.127 C 150.457 162.691, 150.500 162.465, 150.477 150.552 C 150.458 140.464, 150.093 137.597, 148.233 132.958 C 143.503 121.156, 131.612 110.129, 119.229 106.060 C 111.040 103.370, 96.979 103.315, 88.762 105.942 M 605.754 105.084 C 590.408 108.702, 576.711 122.494, 572.533 138.535 C 568.280 154.864, 572.521 171.275, 583.999 182.904 C 594.296 193.336, 605.830 197.595, 621.558 196.773 C 629.616 196.351, 631.890 195.799, 638.491 192.664 C 657.670 183.556, 668.351 163.814, 665.170 143.352 C 663.538 132.859, 659.865 125.718, 652.076 117.897 C 641.763 107.543, 632.900 103.957, 618 104.112 C 613.325 104.161, 607.814 104.598, 605.754 105.084 M 951.500 139.556 C 947.160 141.790, 945.048 144.967, 945.022 149.300 C 944.992 154.484, 947.240 158.412, 951.357 160.365 C 954.151 161.691, 958.221 162, 972.901 162 L 991 162 991 150 L 991 138 972.750 138.006 C 958.269 138.011, 953.880 138.331, 951.500 139.556 M 1 206.966 L 1 219 12.032 219 L 23.063 219 22.782 207.250 L 22.500 195.500 11.750 195.216 L 1 194.932 1 206.966 M 1.762 225.707 C 3.006 225.946, 4.806 225.937, 5.762 225.687 C 6.718 225.437, 5.700 225.241, 3.500 225.252 C 1.300 225.263, 0.518 225.468, 1.762 225.707 M 12.750 225.737 C 15.638 225.939, 20.363 225.939, 23.250 225.737 C 26.138 225.535, 23.775 225.370, 18 225.370 C 12.225 225.370, 9.863 225.535, 12.750 225.737 " stroke="none" fill="black" fill-rule="evenodd"/>
	<path fill-opacity="0.322" d="M 833.760 50.488 L 833.500 96.041 828 91.870 C 821.153 86.677, 810.142 81.481, 801.832 79.522 C 793.632 77.589, 776.327 77.603, 768 79.549 C 764.425 80.384, 757.675 82.942, 753 85.234 C 746.016 88.657, 742.797 91.102, 734.950 98.950 C 727.100 106.799, 724.649 110.025, 721.186 117.064 C 716.045 127.516, 714.040 136.471, 714.017 149.090 C 713.968 176.291, 728.585 200.253, 752.945 212.904 C 764.016 218.654, 771.405 220.376, 785 220.376 C 805.960 220.376, 819.468 214.629, 835.104 199.062 C 843.035 191.166, 845.434 188.019, 848.873 181 C 855.822 166.818, 855.768 167.552, 856.154 82 L 856.500 5.500 845.260 5.217 L 834.020 4.935 833.760 50.488 M 0 89.533 L 0 102.066 11.250 101.783 L 22.500 101.500 22.781 89.250 L 23.062 77 11.531 77 L 0 77 0 89.533 M 264.359 79.006 C 256.388 80.108, 245.288 84, 238.195 88.179 C 235.095 90.006, 228.675 95.325, 223.929 100 C 214.530 109.257, 209.698 116.883, 205.871 128.500 C 203.633 135.292, 203.554 136.771, 203.223 178.250 L 202.883 221 214.371 221 L 225.860 221 226.230 180.250 C 226.579 141.729, 226.715 139.191, 228.712 133.849 C 233.647 120.645, 244.391 109.461, 256.746 104.667 C 278.046 96.402, 302.530 104.567, 315.077 124.120 C 321.724 134.479, 322 136.748, 322 181.089 L 322 221 334.050 221 L 346.099 221 345.800 178.250 L 345.500 135.500 342.684 127.500 C 338.686 116.140, 332.267 106.400, 323.095 97.771 C 314.256 89.457, 305.028 84.123, 294.368 81.169 C 285.793 78.793, 272.717 77.850, 264.359 79.006 M 436.925 78.981 C 421.146 81.014, 408.586 87.452, 395.916 100.003 C 388.717 107.134, 386.585 110.037, 382.694 118.003 C 372.444 138.992, 372.419 160.682, 382.621 181.829 C 386.434 189.732, 388.527 192.569, 396.311 200.384 C 403.823 207.925, 407.051 210.368, 414 213.770 C 428.930 221.081, 430.332 221.259, 476.750 221.733 L 518 222.155 518 210.078 L 518 198 478.250 197.988 C 435.111 197.975, 432.871 197.748, 422.874 192.367 C 416.269 188.812, 407.382 179.955, 403.782 173.341 C 396.465 159.898, 396.062 143.255, 402.710 129.112 C 406.031 122.047, 416.672 111.213, 423.875 107.563 C 433.739 102.565, 439.113 102.036, 480.250 102.017 L 518 102 518 90 L 518 78 480.250 78.131 C 459.488 78.203, 439.991 78.586, 436.925 78.981 M 940 79.593 C 920.787 84.696, 903.104 98.914, 894.351 116.297 C 889.206 126.512, 887 136.328, 887 149 C 887 168.483, 892.599 183.004, 905.412 196.746 C 914.141 206.110, 924.066 212.726, 935.099 216.537 L 943.500 219.439 973.893 219.798 C 998.374 220.087, 1004.449 219.898, 1005.127 218.828 C 1005.590 218.098, 1005.969 212.325, 1005.969 206 C 1005.969 199.217, 1005.617 195.055, 1005.111 195.854 C 1004.412 196.958, 999.014 197.126, 975.877 196.766 C 951.440 196.385, 946.736 196.062, 942 194.437 C 929.818 190.257, 917.274 178.474, 912.837 167.042 C 909.836 159.309, 909.170 144.395, 911.468 136.387 C 915.788 121.333, 927.295 109.500, 942.091 104.895 C 947.463 103.222, 951.514 103, 976.589 103 L 1005 103 1005 90.500 L 1005 78 975.250 78.066 C 952.505 78.116, 944.205 78.476, 940 79.593 M 87.168 80.476 C 62.787 85.989, 41.296 107.061, 34.928 131.700 C 32.397 141.489, 32.198 158.688, 34.514 167.500 C 39.783 187.555, 53.916 204.884, 72.500 214.078 C 82.227 218.890, 91.567 220.965, 103.500 220.965 C 115.541 220.965, 124.775 218.886, 134.900 213.895 C 141.618 210.584, 145.021 208.018, 151.900 201.080 C 161.477 191.419, 165.947 184.603, 169.608 174.078 C 176.535 154.157, 174.326 130.924, 163.821 113.241 C 159.403 105.804, 146.951 93.285, 139.490 88.778 C 128.936 82.402, 119.254 79.719, 105.500 79.359 C 97.617 79.152, 91.328 79.536, 87.168 80.476 M 602.072 80.553 C 577.529 85.875, 555.311 107.855, 549.370 132.689 C 547.191 141.799, 547.199 158.456, 549.387 167.500 C 554.216 187.456, 569.061 205.338, 588.529 214.650 C 606.619 223.303, 630.951 223.111, 648.650 214.177 C 667.548 204.637, 681.924 186.955, 686.602 167.500 C 688.644 159.009, 688.880 142.798, 687.082 134.500 C 681.555 108.980, 660.773 87.464, 635.377 80.968 C 626.250 78.634, 611.753 78.453, 602.072 80.553 M 772 103.298 C 756.302 107.787, 743.700 120.300, 738.873 136.193 C 736.158 145.129, 736.591 158.680, 739.855 167 C 742.544 173.851, 748.822 182.324, 754.880 187.278 C 772.915 202.025, 800.136 201.076, 816.778 185.119 C 828.049 174.313, 832.549 162.848, 831.781 146.897 C 831.353 138.019, 830.926 136.235, 827.629 129.564 C 822.658 119.507, 814.548 111.369, 804.591 106.447 C 797.500 102.943, 796.207 102.646, 786.723 102.340 C 780.395 102.137, 774.786 102.502, 772 103.298 M 95.580 104.073 C 79.744 106.473, 64.205 119.370, 59.032 134.408 C 54.841 146.588, 55.568 160.617, 60.955 171.560 C 64.952 179.678, 74.756 189.043, 83.688 193.273 C 90.276 196.394, 90.927 196.500, 103.500 196.500 C 115.972 196.500, 116.764 196.374, 123 193.401 C 141.225 184.712, 151.056 169.873, 151.167 150.881 C 151.270 133.485, 144.237 120.461, 129.547 110.838 C 120.116 104.660, 107.841 102.215, 95.580 104.073 M 610.951 104.042 C 598.407 105.932, 588.351 111.780, 580.504 121.748 C 573.188 131.041, 571.583 136.280, 571.538 151.021 C 571.501 163.136, 571.604 163.752, 574.708 170.021 C 583.461 187.702, 598.386 197, 618.016 197 C 633.019 197, 644.034 192.214, 653.916 181.401 C 667.251 166.811, 669.820 145.301, 660.315 127.837 C 656.968 121.689, 646.887 111.990, 640.454 108.730 C 631.640 104.264, 620.851 102.549, 610.951 104.042 M 952.415 139.421 C 942.499 143.739, 942.631 156.441, 952.636 160.621 C 955.014 161.615, 960.831 162, 973.468 162 L 991 162 991 150 L 991 138 973.250 138.039 C 960.667 138.067, 954.602 138.469, 952.415 139.421 M 1 207.500 L 1 219 12 219 L 23 219 23 207.500 L 23 196 12 196 L 1 196 1 207.500 M 1.762 225.707 C 3.006 225.946, 4.806 225.937, 5.762 225.687 C 6.718 225.437, 5.700 225.241, 3.500 225.252 C 1.300 225.263, 0.518 225.468, 1.762 225.707 M 10.250 225.689 C 11.213 225.941, 12.787 225.941, 13.750 225.689 C 14.713 225.438, 13.925 225.232, 12 225.232 C 10.075 225.232, 9.287 225.438, 10.250 225.689 M 18.750 225.723 C 20.538 225.945, 23.462 225.945, 25.250 225.723 C 27.038 225.502, 25.575 225.320, 22 225.320 C 18.425 225.320, 16.962 225.502, 18.750 225.723 " stroke="none" fill="black" fill-rule="evenodd"/>
	<path fill-opacity="0.505" d="M 834 50.500 C 834 75.525, 833.756 96, 833.457 96 C 833.158 96, 830.571 94.249, 827.707 92.109 C 806.543 76.292, 778.185 73.474, 754.500 84.832 C 739.912 91.829, 728.202 103.563, 720.904 118.500 C 711.404 137.945, 711.672 160.207, 721.655 180.898 C 725.469 188.805, 727.563 191.665, 734.844 198.914 C 739.613 203.661, 746.419 209.220, 750 211.292 C 767.128 221.202, 789.156 223.174, 808.335 216.515 C 828.026 209.677, 845.548 192.024, 852.543 171.976 L 855.500 163.500 855.790 84.891 L 856.079 6.283 851.400 5.641 C 848.827 5.289, 843.859 5, 840.360 5 L 834 5 834 50.500 M 0 89 L 0 101 11 101 L 22 101 22 89 L 22 77 11 77 L 0 77 0 89 M 945 78.687 C 939.366 79.620, 929.106 83.368, 923 86.723 C 918.879 88.987, 913.192 93.626, 907.463 99.397 C 900.148 106.765, 897.637 110.120, 894.288 117 C 888.519 128.853, 886.605 138.467, 887.240 152.397 C 888.308 175.811, 899.057 194.868, 918.553 207.907 C 933.790 218.098, 942.856 219.917, 978.643 219.965 C 1001.580 219.996, 1004.860 219.806, 1005.393 218.418 C 1005.727 217.548, 1005.964 211.811, 1005.921 205.668 C 1005.878 199.526, 1005.615 195.063, 1005.338 195.750 C 1004.700 197.331, 956.043 197.525, 947.891 195.979 C 923.366 191.328, 906.042 166.997, 909.848 142.550 C 912.959 122.569, 929.268 106.106, 949 103.029 C 952.575 102.471, 966.638 102.012, 980.250 102.008 L 1005 102 1005 90 L 1005 78 976.250 78.136 C 960.438 78.211, 946.375 78.459, 945 78.687 M 90.322 80.033 C 66.508 84.309, 44.136 103.910, 36.293 127.369 C 33.846 134.692, 33.572 136.942, 33.538 150 C 33.505 162.567, 33.810 165.433, 35.826 171.500 C 42.844 192.627, 59.846 209.938, 80.882 217.377 C 88.927 220.222, 90.431 220.424, 103.500 220.412 C 116.195 220.400, 118.245 220.141, 125.490 217.626 C 147.933 209.837, 165.110 191.217, 171.128 168.154 C 173.860 157.683, 173.845 142.257, 171.091 131.700 C 165.046 108.524, 147.216 89.645, 124.500 82.366 C 115.532 79.492, 99.448 78.394, 90.322 80.033 M 256.216 80.963 C 237.138 86.108, 219.268 100.590, 210.490 118.019 C 203.796 131.312, 203.704 132.090, 203.263 178.750 L 202.864 221 214.432 221 L 226 221 226 183.136 C 226 161.564, 226.439 142.957, 227.021 139.891 C 231.132 118.211, 251.663 101.247, 274 101.072 C 281.315 101.015, 291.174 103.426, 297.329 106.776 C 309.478 113.388, 319.813 128.162, 321.971 142 C 322.529 145.575, 322.988 164.813, 322.992 184.750 L 323 221 334.559 221 L 346.118 221 345.785 178.750 L 345.452 136.500 342.752 128.500 C 338.922 117.156, 333.647 108.671, 325 99.950 C 316.487 91.363, 308.121 86.062, 297.096 82.270 C 286.576 78.650, 267.099 78.028, 256.216 80.963 M 428.373 80.979 C 403.984 87.373, 383.927 107.425, 377.338 132 C 374.969 140.836, 374.990 159.150, 377.379 168 C 384.091 192.864, 404.117 212.764, 428.774 219.070 C 435.624 220.822, 440.088 221, 477.160 221 L 518 221 518 209.500 L 518 198 477.605 198 C 439.964 198, 436.767 197.863, 430.701 195.989 C 418.626 192.260, 407.906 182.434, 401.893 169.585 C 399.248 163.932, 398.628 161.218, 398.225 153.516 C 397.658 142.663, 398.966 135.932, 403.221 127.824 C 406.859 120.893, 415.476 112.019, 422.437 108.036 C 432.395 102.338, 435.550 102, 478.710 102 L 518 102 518 90.500 L 518 79 476.750 79.055 C 439.788 79.104, 434.759 79.304, 428.373 80.979 M 605.322 80.033 C 591.073 82.592, 577.883 90.093, 566.665 102.018 C 553.631 115.873, 548 130.349, 548 150 C 548 169.483, 553.599 184.004, 566.412 197.746 C 575.398 207.386, 585.276 213.872, 596.645 217.598 C 604.651 220.222, 606.747 220.493, 618.500 220.430 C 629.808 220.370, 632.558 220.011, 639.631 217.675 C 650.291 214.153, 660.827 207.144, 669.588 197.746 C 682.401 184.004, 688 169.483, 688 150 C 688 129.147, 682.277 115.285, 667.522 100.397 C 653.137 85.883, 640.333 80.121, 621 79.461 C 615.225 79.264, 608.170 79.522, 605.322 80.033 M 771.746 103.035 C 761.825 105.508, 750.426 114.192, 743.939 124.221 C 738.603 132.470, 736.670 140.573, 737.155 152.658 C 737.510 161.491, 737.931 163.323, 741.182 170.168 C 750.975 190.788, 772.874 201.616, 795.201 196.875 C 824.325 190.690, 840.866 156.457, 827.878 129.245 C 823.622 120.327, 813.667 110.383, 804.521 105.912 C 797.994 102.721, 796.829 102.487, 786.521 102.299 C 780.459 102.189, 773.811 102.520, 771.746 103.035 M 93.510 104.175 C 74.880 107.728, 59.467 124.167, 56.690 143.447 C 52.749 170.799, 70.941 194.262, 98.556 197.443 C 129.255 200.981, 155.874 173.614, 151.170 143.352 C 149.624 133.409, 146.023 126.167, 138.770 118.413 C 127.126 105.966, 110.895 100.860, 93.510 104.175 M 608.108 104.082 C 594.811 106.693, 581.523 117.117, 575.212 129.886 C 571.712 136.968, 571.482 138.028, 571.145 148.621 C 570.610 165.472, 574.262 174.546, 585.846 185.151 C 609.419 206.733, 647.378 199.271, 661.729 170.235 C 664.999 163.617, 665.369 162.006, 665.752 152.723 C 666.253 140.572, 664.443 133.520, 658.545 124.634 C 647.693 108.284, 627.859 100.203, 608.108 104.082 M 949.111 141.560 C 943.702 146.111, 944.019 154.510, 949.770 159.034 C 952.060 160.835, 953.895 161, 971.635 161 L 991 161 991 150 L 991 139 971.577 139 C 952.196 139, 952.147 139.006, 949.111 141.560 M 1 207.500 L 1 219 11.500 219 L 22 219 22 207.500 L 22 196 11.500 196 L 1 196 1 207.500 M 1.269 225.693 C 2.242 225.947, 3.592 225.930, 4.269 225.656 C 4.946 225.382, 4.150 225.175, 2.500 225.195 C 0.850 225.215, 0.296 225.439, 1.269 225.693 M 9.813 225.683 C 10.534 225.972, 11.397 225.936, 11.729 225.604 C 12.061 225.272, 11.471 225.036, 10.417 225.079 C 9.252 225.127, 9.015 225.364, 9.813 225.683 M 18.750 225.723 C 20.538 225.945, 23.462 225.945, 25.250 225.723 C 27.038 225.502, 25.575 225.320, 22 225.320 C 18.425 225.320, 16.962 225.502, 18.750 225.723 " stroke="none" fill="black" fill-rule="evenodd"/>
</svg>