<?xml version="1.0"?>
<svg width="640" height="480" xmlns="http://www.w3.org/2000/svg" xmlns:svg="http://www.w3.org/2000/svg" xmlns:xlink="http://www.w3.org/1999/xlink">
 <!-- Created with SVG-edit - https://github.com/SVG-Edit/svgedit-->
 <defs>
  <symbol height="226" id="svg_4" viewBox="0 0 1005 226" width="1005" xmlns="http://www.w3.org/2000/svg">
   <path d="m833,49.993l0,44.994l-6.75,-4.642c-11.213,-7.711 -21.504,-11.465 -35.25,-12.858c-7.724,-0.783 -21.15,0.886 -29.5,3.667c-8.339,2.777 -19.85,10.159 -27.019,17.327c-15.747,15.748 -22.979,36.464 -20.468,58.63c2.809,24.804 17.632,45.66 40.487,56.967c34.253,16.946 77.987,1.482 95.009,-33.593c6.755,-13.92 6.597,-11.777 7.204,-97.735l0.549,-77.75l-12.131,0l-12.131,0l0,44.993m-833,39.007l0,13l11.5,0l11.5,0l0,-13l0,-13l-11.5,0l-11.5,0l0,13m944.5,-10.52c-9.87,1.833 -17.458,4.935 -25.928,10.6c-26.636,17.816 -38.051,48.975 -29.411,80.288c6.323,22.919 26.782,42.607 50.605,48.7c6.605,1.689 11.165,1.932 36.287,1.932c25.278,0 28.806,-0.19 29.34,-1.582c0.334,-0.87 0.571,-6.832 0.528,-13.25c-0.043,-6.417 -0.306,-11.105 -0.583,-10.418c-0.754,1.868 -53.9,1.742 -60.988,-0.145c-7.911,-2.106 -14.749,-6.31 -21.209,-13.037c-9.99,-10.403 -13.825,-20.864 -12.909,-35.209c0.292,-4.566 1.428,-10.274 2.712,-13.623c4.443,-11.588 14.989,-22.166 26.816,-26.895c5.454,-2.182 7.22,-2.313 35.49,-2.635l29.75,-0.34l0,-12.933l0,-12.933l-26.75,0.09c-17.309,0.059 -29.22,0.549 -33.75,1.39m-680,0.169c-26.497,4.243 -49.192,22.73 -58.209,47.415l-2.716,7.436l-0.344,44.282l-0.345,44.282l11.807,-0.282l11.807,-0.282l0.515,-42c0.557,-45.429 0.491,-44.862 6.421,-54.981c2.963,-5.056 11.63,-13.321 17.564,-16.749c10.448,-6.035 25.991,-7.561 38.299,-3.759c10.924,3.374 22.242,13.101 27.585,23.709c4.771,9.472 5.116,13.177 5.116,54.99l0,39.29l12,0l12,0l0,-41.34c0,-37.581 -0.176,-42.027 -1.932,-48.894c-6.199,-24.239 -26.468,-44.772 -50.641,-51.3c-5.976,-1.614 -23.372,-2.706 -28.927,-1.817m167.498,0.836c-26.783,5.344 -49.979,28.067 -55.569,54.438c-1.782,8.407 -1.788,23.722 -0.013,32.077c4.812,22.647 24.739,45.013 46.208,51.862c11.586,3.696 17.53,4.126 57.126,4.132l38.25,0.006l0,-12l0,-12l-38.451,0c-24.315,0 -40.399,-0.408 -43.75,-1.11c-13.208,-2.765 -27.067,-13.795 -32.796,-26.102c-12.279,-26.376 0.375,-56.112 28.051,-65.919c6.224,-2.206 7.829,-2.297 46.696,-2.664l40.25,-0.379l0,-11.913l0,-11.913l-39.75,0.094c-28.221,0.067 -41.636,0.47 -46.252,1.391m-345.998,1.022c-21.925,5.345 -41.739,23.316 -49.608,44.994c-7.097,19.553 -4.886,43.178 5.731,61.222c4.32,7.343 17.765,20.807 25.061,25.098c16.704,9.823 40.03,12.219 59.138,6.075c17.138,-5.51 35.773,-23.415 42.757,-41.08c6.382,-16.142 6.356,-37.554 -0.065,-53.796c-5.328,-13.477 -19.753,-29.482 -32.709,-36.29c-10.81,-5.681 -19.792,-7.744 -33.285,-7.647c-6.336,0.046 -13.995,0.687 -17.02,1.424m514.916,0.015c-24.331,5.908 -46.025,27.772 -52.069,52.478c-1.955,7.993 -1.649,27.923 0.554,36c5.937,21.778 25.68,42.576 46.574,49.063c18.848,5.853 40.832,3.622 57.025,-5.787c9.866,-5.732 22.679,-19.043 27.7,-28.776c5.978,-11.588 7.66,-18.763 7.735,-33c0.076,-14.398 -1.132,-19.876 -7.16,-32.468c-3.904,-8.157 -5.795,-10.719 -13.653,-18.5c-15.156,-15.006 -28.861,-20.608 -50.032,-20.449c-6.099,0.046 -13.603,0.694 -16.674,1.439m171.084,23.292c-8.604,2.249 -14.304,5.725 -21.134,12.886c-18.658,19.565 -18.441,47.927 0.513,66.856c26.062,26.027 69.755,13.742 79.129,-22.249c4.322,-16.592 -0.148,-32.108 -12.928,-44.884c-13.058,-13.052 -28.034,-17.195 -45.58,-12.609m-680.302,1.221c-15.573,3.912 -29.062,17.049 -33.2,32.333c-1.283,4.741 -1.634,9.009 -1.337,16.279c0.516,12.661 3.943,20.617 12.614,29.288c11.775,11.775 28.959,16.729 45.113,13.004c11.396,-2.627 24.997,-12.772 30.327,-22.62c7.064,-13.052 7.756,-29.215 1.802,-42.132c-4.276,-9.275 -13.96,-18.862 -23.624,-23.384c-6.061,-2.836 -7.882,-3.198 -17.333,-3.446c-5.808,-0.152 -12.271,0.153 -14.362,0.678m512.1,0.896c-23.466,7.503 -36.852,30.862 -31.674,55.27c1.66,7.823 5.405,14.481 12.017,21.367c6.671,6.947 12.852,10.674 21.394,12.899c27.562,7.179 55.125,-10.5 59.591,-38.221c3.581,-22.233 -10.433,-44.572 -32.217,-51.351c-7.979,-2.484 -21.283,-2.467 -29.111,0.036m170.424,22.606c-11.91,6.025 -16.534,19.808 -10.786,32.153c4.145,8.902 13.09,13.874 23.593,13.114c7.68,-0.555 14.345,-4.621 18.445,-11.252c2.678,-4.333 3.026,-5.775 3.026,-12.552c0,-6.777 -0.348,-8.219 -3.026,-12.552c-6.563,-10.614 -20.199,-14.503 -31.252,-8.911m176.092,11.413c-3.997,2.437 -5.324,4.883 -5.279,9.734c0.044,4.719 1.717,7.854 5.532,10.37c2.636,1.737 4.834,1.933 21.683,1.939l18.75,0.007l0,-12l0,-12l-18.75,0.004c-16.802,0.003 -19.081,0.205 -21.936,1.946m-949.314,67.05l0,12l11,0l11,0l0,-12l0,-12l-11,0l-11,0l0,12m0.762,18.707c1.244,0.239 3.044,0.23 4,-0.02c0.956,-0.25 -0.062,-0.446 -2.262,-0.435c-2.2,0.011 -2.982,0.216 -1.738,0.455m10.988,0.03c2.888,0.202 7.613,0.202 10.5,0c2.888,-0.202 0.525,-0.367 -5.25,-0.367c-5.775,0 -8.137,0.165 -5.25,0.367" fill="black" fill-opacity="0.314" fill-rule="evenodd"/>
   <path d="m832.76,50.003l-0.26,45.002l-5,-3.619c-12.786,-9.253 -26.807,-13.792 -42.5,-13.755c-20.47,0.047 -34.892,6.182 -50.104,21.315c-7.972,7.931 -10.307,10.998 -13.74,18.054c-5.752,11.821 -7.284,18.44 -7.291,31.5c-0.01,17.584 4.239,30.459 14.601,44.243c22.276,29.634 64.338,37.034 95.042,16.721c13.057,-8.638 23.779,-22.004 28.851,-35.964c2.659,-7.318 2.974,-9.62 3.698,-27c0.435,-10.45 0.825,-46.562 0.867,-80.25l0.076,-61.25l-11.99,0l-11.99,0l-0.26,45.003m-832.76,38.964l0,13.033l11.53,0l11.53,0l-0.28,-12.75l-0.28,-12.75l-11.25,-0.283l-11.25,-0.283l0,13.033m947.315,-10.959c-8.377,1.224 -18.344,4.654 -25.315,8.71c-7.945,4.623 -21.322,17.816 -25.821,25.466c-7.761,13.198 -11.2,29.898 -9.263,44.995c2.548,19.87 11.253,35.316 26.957,47.832c7.189,5.73 12.733,8.754 22.149,12.079c6.1,2.155 8.278,2.311 37.371,2.677c24.911,0.313 31.056,0.131 31.735,-0.94c0.463,-0.73 0.841,-6.727 0.841,-13.327c0,-6.724 -0.364,-11.426 -0.828,-10.694c-0.658,1.038 -6.968,1.243 -30.79,1l-29.963,-0.306l-7.759,-3.837c-10.301,-5.093 -17.698,-12.509 -22.493,-22.548c-3.556,-7.448 -3.636,-7.878 -3.636,-19.615c0,-11.784 0.067,-12.14 3.715,-19.78c6.128,-12.834 16.767,-21.742 30.285,-25.359c3.6,-0.963 12.772,-1.341 32.75,-1.349l27.75,-0.012l0,-13l0,-13l-26.25,0.125c-14.437,0.068 -28.583,0.466 -31.435,0.883m-684.552,0.956c-15.446,2.825 -26.659,8.893 -38.827,21.011c-10.861,10.817 -15.708,18.903 -18.964,31.634c-1.807,7.064 -1.972,11.18 -1.972,49.083l0,41.371l11.75,-0.281l11.75,-0.282l0.5,-42.5l0.5,-42.5l3.227,-6.812c4.549,-9.605 13.552,-18.728 23.173,-23.483c7.488,-3.701 7.51,-3.705 20.548,-3.705c12.735,0 13.216,0.08 19.798,3.299c10.197,4.987 17.908,12.69 23.013,22.989l4.241,8.555l0.5,42.079l0.5,42.078l11.75,0.282l11.75,0.281l-0.015,-41.281c-0.016,-45.695 -0.272,-48.149 -6.373,-61.114c-9.021,-19.168 -26.892,-33.895 -48.112,-39.645c-5.448,-1.477 -22.929,-2.121 -28.737,-1.059m172,0.069c-25.09,4.225 -48.39,24.169 -56.47,48.336c-2.448,7.324 -2.721,9.569 -2.753,22.631c-0.034,13.714 0.132,14.967 3.047,23.118c7.957,22.241 27.112,40.109 49.913,46.56c5.094,1.441 12.305,1.755 47.75,2.078l41.75,0.381l0,-12.068l0,-12.069l-38.364,0c-21.362,0 -40.75,-0.444 -43.75,-1.002c-12.794,-2.379 -26.342,-13.035 -32.776,-25.781c-14.425,-28.575 4.357,-64.087 36.073,-68.205c4.024,-0.523 23.404,-0.964 43.067,-0.981l35.75,-0.031l0,-12l0,-12l-39.25,0.118c-21.587,0.064 -41.381,0.476 -43.987,0.915m-348.263,1.394c-14.354,4.033 -23.417,9.401 -34,20.14c-8.089,8.207 -12.63,15.356 -16.108,25.355c-6.861,19.728 -4.814,42.757 5.332,59.994c4.594,7.807 15.715,19.35 23.581,24.479c12.626,8.232 28.946,11.954 45.899,10.468c27.217,-2.387 51.16,-22.699 59.954,-50.863c3.362,-10.768 3.362,-29.232 0,-40c-4.003,-12.821 -8.723,-20.626 -18.142,-30c-9.488,-9.443 -16.256,-13.863 -27.181,-17.753c-6.26,-2.228 -9.314,-2.656 -20.835,-2.918c-9.397,-0.214 -15.02,0.12 -18.5,1.098m518,-0.802c-7.907,1.984 -16.021,5.183 -22,8.673c-8.361,4.88 -20.675,17.004 -25.377,24.986c-13.154,22.328 -13.154,51.104 0,73.432c4.434,7.527 16.793,19.905 24.579,24.617c21.425,12.966 50.061,13.243 71.298,0.69c35.93,-21.238 46.762,-67.299 23.874,-101.519c-8.737,-13.063 -21.525,-23.09 -36.039,-28.257c-6.307,-2.245 -9.227,-2.647 -20.835,-2.867c-7.425,-0.141 -14.4,-0.031 -15.5,0.245m167.605,23.958c-20.291,5.456 -35.105,25.044 -35.105,46.417c0,23.089 17.812,43.73 40.5,46.933c29.093,4.107 54.5,-18.164 54.5,-47.772c0,-6.715 -2.103,-15.482 -5.143,-21.441c-2.935,-5.754 -13.848,-16.853 -19.704,-20.04c-10.07,-5.481 -23.894,-7.097 -35.048,-4.097m-683.343,2.359c-11.968,3.826 -22.565,13.199 -28.077,24.835c-3.091,6.524 -3.185,7.123 -3.185,20.223c0,13.01 0.109,13.716 3,19.453c6.03,11.966 17.919,21.889 29.96,25.005c23.023,5.958 45.955,-4.356 56.322,-25.331c3.675,-7.436 3.718,-7.662 3.695,-19.575c-0.019,-10.088 -0.384,-12.955 -2.244,-17.594c-4.73,-11.802 -16.621,-22.829 -29.004,-26.898c-8.189,-2.69 -22.25,-2.745 -30.467,-0.118m516.992,-0.858c-15.346,3.618 -29.043,17.41 -33.221,33.451c-4.253,16.329 -0.012,32.74 11.466,44.369c10.297,10.432 21.831,14.691 37.559,13.869c8.058,-0.422 10.332,-0.974 16.933,-4.109c19.179,-9.108 29.86,-28.85 26.679,-49.312c-1.632,-10.493 -5.305,-17.634 -13.094,-25.455c-10.313,-10.354 -19.176,-13.94 -34.076,-13.785c-4.675,0.049 -10.186,0.486 -12.246,0.972m345.746,34.472c-4.34,2.234 -6.452,5.411 -6.478,9.744c-0.03,5.184 2.218,9.112 6.335,11.065c2.794,1.326 6.864,1.635 21.544,1.635l18.099,0l0,-12l0,-12l-18.25,0.006c-14.481,0.005 -18.87,0.325 -21.25,1.55m-950.5,67.41l0,12.034l11.032,0l11.031,0l-0.281,-11.75l-0.282,-11.75l-10.75,-0.284l-10.75,-0.284l0,12.034m0.762,18.741c1.244,0.239 3.044,0.23 4,-0.02c0.956,-0.25 -0.062,-0.446 -2.262,-0.435c-2.2,0.011 -2.982,0.216 -1.738,0.455m10.988,0.03c2.888,0.202 7.613,0.202 10.5,0c2.888,-0.202 0.525,-0.367 -5.25,-0.367c-5.775,0 -8.137,0.165 -5.25,0.367" fill="black" fill-opacity="0.148" fill-rule="evenodd"/>
   <path d="m833.76,50.488l-0.26,45.553l-5.5,-4.171c-6.847,-5.193 -17.858,-10.389 -26.168,-12.348c-8.2,-1.933 -25.505,-1.919 -33.832,0.027c-3.575,0.835 -10.325,3.393 -15,5.685c-6.984,3.423 -10.203,5.868 -18.05,13.716c-7.85,7.849 -10.301,11.075 -13.764,18.114c-5.141,10.452 -7.146,19.407 -7.169,32.026c-0.049,27.201 14.568,51.163 38.928,63.814c11.071,5.75 18.46,7.472 32.055,7.472c20.96,0 34.468,-5.747 50.104,-21.314c7.931,-7.896 10.33,-11.043 13.769,-18.062c6.949,-14.182 6.895,-13.448 7.281,-99l0.346,-76.5l-11.24,-0.283l-11.24,-0.282l-0.26,45.553m-833.76,39.045l0,12.533l11.25,-0.283l11.25,-0.283l0.281,-12.25l0.281,-12.25l-11.531,0l-11.531,0l0,12.533m264.359,-10.527c-7.971,1.102 -19.071,4.994 -26.164,9.173c-3.1,1.827 -9.52,7.146 -14.266,11.821c-9.399,9.257 -14.231,16.883 -18.058,28.5c-2.238,6.792 -2.317,8.271 -2.648,49.75l-0.34,42.75l11.488,0l11.489,0l0.37,-40.75c0.349,-38.521 0.485,-41.059 2.482,-46.401c4.935,-13.204 15.679,-24.388 28.034,-29.182c21.3,-8.265 45.784,-0.1 58.331,19.453c6.647,10.359 6.923,12.628 6.923,56.969l0,39.911l12.05,0l12.049,0l-0.299,-42.75l-0.3,-42.75l-2.816,-8c-3.998,-11.36 -10.417,-21.1 -19.589,-29.729c-8.839,-8.314 -18.067,-13.648 -28.727,-16.602c-8.575,-2.376 -21.651,-3.319 -30.009,-2.163m172.566,-0.025c-15.779,2.033 -28.339,8.471 -41.009,21.022c-7.199,7.131 -9.331,10.034 -13.222,18c-10.25,20.989 -10.275,42.679 -0.073,63.826c3.813,7.903 5.906,10.74 13.69,18.555c7.512,7.541 10.74,9.984 17.689,13.386c14.93,7.311 16.332,7.489 62.75,7.963l41.25,0.422l0,-12.077l0,-12.078l-39.75,-0.012c-43.139,-0.013 -45.379,-0.24 -55.376,-5.621c-6.605,-3.555 -15.492,-12.412 -19.092,-19.026c-7.317,-13.443 -7.72,-30.086 -1.072,-44.229c3.321,-7.065 13.962,-17.899 21.165,-21.549c9.864,-4.998 15.238,-5.527 56.375,-5.546l37.75,-0.017l0,-12l0,-12l-37.75,0.131c-20.762,0.072 -40.259,0.455 -43.325,0.85m503.075,0.612c-19.213,5.103 -36.896,19.321 -45.649,36.704c-5.145,10.215 -7.351,20.031 -7.351,32.703c0,19.483 5.599,34.004 18.412,47.746c8.729,9.364 18.654,15.98 29.687,19.791l8.401,2.902l30.393,0.359c24.481,0.289 30.556,0.1 31.234,-0.97c0.463,-0.73 0.842,-6.503 0.842,-12.828c0,-6.783 -0.352,-10.945 -0.858,-10.146c-0.699,1.104 -6.097,1.272 -29.234,0.912c-24.437,-0.381 -29.141,-0.704 -33.877,-2.329c-12.182,-4.18 -24.726,-15.963 -29.163,-27.395c-3.001,-7.733 -3.667,-22.647 -1.369,-30.655c4.32,-15.054 15.827,-26.887 30.623,-31.492c5.372,-1.673 9.423,-1.895 34.498,-1.895l28.411,0l0,-12.5l0,-12.5l-29.75,0.066c-22.745,0.05 -31.045,0.41 -35.25,1.527m-852.832,0.883c-24.381,5.513 -45.872,26.585 -52.24,51.224c-2.531,9.789 -2.73,26.988 -0.414,35.8c5.269,20.055 19.402,37.384 37.986,46.578c9.727,4.812 19.067,6.887 31,6.887c12.041,0 21.275,-2.079 31.4,-7.07c6.718,-3.311 10.121,-5.877 17,-12.815c9.577,-9.661 14.047,-16.477 17.708,-27.002c6.927,-19.921 4.718,-43.154 -5.787,-60.837c-4.418,-7.437 -16.87,-19.956 -24.331,-24.463c-10.554,-6.376 -20.236,-9.059 -33.99,-9.419c-7.883,-0.207 -14.172,0.177 -18.332,1.117m514.904,0.077c-24.543,5.322 -46.761,27.302 -52.702,52.136c-2.179,9.11 -2.171,25.767 0.017,34.811c4.829,19.956 19.674,37.838 39.142,47.15c18.09,8.653 42.422,8.461 60.121,-0.473c18.898,-9.54 33.274,-27.222 37.952,-46.677c2.042,-8.491 2.278,-24.702 0.48,-33c-5.527,-25.52 -26.309,-47.036 -51.705,-53.532c-9.127,-2.334 -23.624,-2.515 -33.305,-0.415m169.928,22.745c-15.698,4.489 -28.3,17.002 -33.127,32.895c-2.715,8.936 -2.282,22.487 0.982,30.807c2.689,6.851 8.967,15.324 15.025,20.278c18.035,14.747 45.256,13.798 61.898,-2.159c11.271,-10.806 15.771,-22.271 15.003,-38.222c-0.428,-8.878 -0.855,-10.662 -4.152,-17.333c-4.971,-10.057 -13.081,-18.195 -23.038,-23.117c-7.091,-3.504 -8.384,-3.801 -17.868,-4.107c-6.328,-0.203 -11.937,0.162 -14.723,0.958m-676.42,0.775c-15.836,2.4 -31.375,15.297 -36.548,30.335c-4.191,12.18 -3.464,26.209 1.923,37.152c3.997,8.118 13.801,17.483 22.733,21.713c6.588,3.121 7.239,3.227 19.812,3.227c12.472,0 13.264,-0.126 19.5,-3.099c18.225,-8.689 28.056,-23.528 28.167,-42.52c0.103,-17.396 -6.93,-30.42 -21.62,-40.043c-9.431,-6.178 -21.706,-8.623 -33.967,-6.765m515.371,-0.031c-12.544,1.89 -22.6,7.738 -30.447,17.706c-7.316,9.293 -8.921,14.532 -8.966,29.273c-0.037,12.115 0.066,12.731 3.17,19c8.753,17.681 23.678,26.979 43.308,26.979c15.003,0 26.018,-4.786 35.9,-15.599c13.335,-14.59 15.904,-36.1 6.399,-53.564c-3.347,-6.148 -13.428,-15.847 -19.861,-19.107c-8.814,-4.466 -19.603,-6.181 -29.503,-4.688m341.464,35.379c-9.916,4.318 -9.784,17.02 0.221,21.2c2.378,0.994 8.195,1.379 20.832,1.379l17.532,0l0,-12l0,-12l-17.75,0.039c-12.583,0.028 -18.648,0.43 -20.835,1.382m-951.415,68.079l0,11.5l11,0l11,0l0,-11.5l0,-11.5l-11,0l-11,0l0,11.5m0.762,18.207c1.244,0.239 3.044,0.23 4,-0.02c0.956,-0.25 -0.062,-0.446 -2.262,-0.435c-2.2,0.011 -2.982,0.216 -1.738,0.455m8.488,-0.018c0.963,0.252 2.537,0.252 3.5,0c0.963,-0.251 0.175,-0.457 -1.75,-0.457c-1.925,0 -2.713,0.206 -1.75,0.457m8.5,0.034c1.788,0.222 4.712,0.222 6.5,0c1.788,-0.221 0.325,-0.403 -3.25,-0.403c-3.575,0 -5.038,0.182 -3.25,0.403" fill="black" fill-opacity="0.322" fill-rule="evenodd"/>
   <path d="m834,50.5c0,25.025 -0.244,45.5 -0.543,45.5c-0.299,0 -2.886,-1.751 -5.75,-3.891c-21.164,-15.817 -49.522,-18.635 -73.207,-7.277c-14.588,6.997 -26.298,18.731 -33.596,33.668c-9.5,19.445 -9.232,41.707 0.751,62.398c3.814,7.907 5.908,10.767 13.189,18.016c4.769,4.747 11.575,10.306 15.156,12.378c17.128,9.91 39.156,11.882 58.335,5.223c19.691,-6.838 37.213,-24.491 44.208,-44.539l2.957,-8.476l0.29,-78.609l0.289,-78.608l-4.679,-0.642c-2.573,-0.352 -7.541,-0.641 -11.04,-0.641l-6.36,0l0,45.5m-834,38.5l0,12l11,0l11,0l0,-12l0,-12l-11,0l-11,0l0,12m945,-10.313c-5.634,0.933 -15.894,4.681 -22,8.036c-4.121,2.264 -9.808,6.903 -15.537,12.674c-7.315,7.368 -9.826,10.723 -13.175,17.603c-5.769,11.853 -7.683,21.467 -7.048,35.397c1.068,23.414 11.817,42.471 31.313,55.51c15.237,10.191 24.303,12.01 60.09,12.058c22.937,0.031 26.217,-0.159 26.75,-1.547c0.334,-0.87 0.571,-6.607 0.528,-12.75c-0.043,-6.142 -0.306,-10.605 -0.583,-9.918c-0.638,1.581 -49.295,1.775 -57.447,0.229c-24.525,-4.651 -41.849,-28.982 -38.043,-53.429c3.111,-19.981 19.42,-36.444 39.152,-39.521c3.575,-0.558 17.638,-1.017 31.25,-1.021l24.75,-0.008l0,-12l0,-12l-28.75,0.136c-15.812,0.075 -29.875,0.323 -31.25,0.551m-854.678,1.346c-23.814,4.276 -46.186,23.877 -54.029,47.336c-2.447,7.323 -2.721,9.573 -2.755,22.631c-0.033,12.567 0.272,15.433 2.288,21.5c7.018,21.127 24.02,38.438 45.056,45.877c8.045,2.845 9.549,3.047 22.618,3.035c12.695,-0.012 14.745,-0.271 21.99,-2.786c22.443,-7.789 39.62,-26.409 45.638,-49.472c2.732,-10.471 2.717,-25.897 -0.037,-36.454c-6.045,-23.176 -23.875,-42.055 -46.591,-49.334c-8.968,-2.874 -25.052,-3.972 -34.178,-2.333m165.894,0.93c-19.078,5.145 -36.948,19.627 -45.726,37.056c-6.694,13.293 -6.786,14.071 -7.227,60.731l-0.399,42.25l11.568,0l11.568,0l0,-37.864c0,-21.572 0.439,-40.179 1.021,-43.245c4.111,-21.68 24.642,-38.644 46.979,-38.819c7.315,-0.057 17.174,2.354 23.329,5.704c12.149,6.612 22.484,21.386 24.642,35.224c0.558,3.575 1.017,22.813 1.021,42.75l0.008,36.25l11.559,0l11.559,0l-0.333,-42.25l-0.333,-42.25l-2.7,-8c-3.83,-11.344 -9.105,-19.829 -17.752,-28.55c-8.513,-8.587 -16.879,-13.888 -27.904,-17.68c-10.52,-3.62 -29.997,-4.242 -40.88,-1.307m172.157,0.016c-24.389,6.394 -44.446,26.446 -51.035,51.021c-2.369,8.836 -2.348,27.15 0.041,36c6.712,24.864 26.738,44.764 51.395,51.07c6.85,1.752 11.314,1.93 48.386,1.93l40.84,0l0,-11.5l0,-11.5l-40.395,0c-37.641,0 -40.838,-0.137 -46.904,-2.011c-12.075,-3.729 -22.795,-13.555 -28.808,-26.404c-2.645,-5.653 -3.265,-8.367 -3.668,-16.069c-0.567,-10.853 0.741,-17.584 4.996,-25.692c3.638,-6.931 12.255,-15.805 19.216,-19.788c9.958,-5.698 13.113,-6.036 56.273,-6.036l39.29,0l0,-11.5l0,-11.5l-41.25,0.055c-36.962,0.049 -41.991,0.249 -48.377,1.924m176.949,-0.946c-14.249,2.559 -27.439,10.06 -38.657,21.985c-13.034,13.855 -18.665,28.331 -18.665,47.982c0,19.483 5.599,34.004 18.412,47.746c8.986,9.64 18.864,16.126 30.233,19.852c8.006,2.624 10.102,2.895 21.855,2.832c11.308,-0.06 14.058,-0.419 21.131,-2.755c10.66,-3.522 21.196,-10.531 29.957,-19.929c12.813,-13.742 18.412,-28.263 18.412,-47.746c0,-20.853 -5.723,-34.715 -20.478,-49.603c-14.385,-14.514 -27.189,-20.276 -46.522,-20.936c-5.775,-0.197 -12.83,0.061 -15.678,0.572m166.424,23.002c-9.921,2.473 -21.32,11.157 -27.807,21.186c-5.336,8.249 -7.269,16.352 -6.784,28.437c0.355,8.833 0.776,10.665 4.027,17.51c9.793,20.62 31.692,31.448 54.019,26.707c29.124,-6.185 45.665,-40.418 32.677,-67.63c-4.256,-8.918 -14.211,-18.862 -23.357,-23.333c-6.527,-3.191 -7.692,-3.425 -18,-3.613c-6.062,-0.11 -12.71,0.221 -14.775,0.736m-678.236,1.14c-18.63,3.553 -34.043,19.992 -36.82,39.272c-3.941,27.352 14.251,50.815 41.866,53.996c30.699,3.538 57.318,-23.829 52.614,-54.091c-1.546,-9.943 -5.147,-17.185 -12.4,-24.939c-11.644,-12.447 -27.875,-17.553 -45.26,-14.238m514.598,-0.093c-13.297,2.611 -26.585,13.035 -32.896,25.804c-3.5,7.082 -3.73,8.142 -4.067,18.735c-0.535,16.851 3.117,25.925 14.701,36.53c23.573,21.582 61.532,14.12 75.883,-14.916c3.27,-6.618 3.64,-8.229 4.023,-17.512c0.501,-12.151 -1.309,-19.203 -7.207,-28.089c-10.852,-16.35 -30.686,-24.431 -50.437,-20.552m341.003,37.478c-5.409,4.551 -5.092,12.95 0.659,17.474c2.29,1.801 4.125,1.966 21.865,1.966l19.365,0l0,-11l0,-11l-19.423,0c-19.381,0 -19.43,0.006 -22.466,2.56m-948.111,65.94l0,11.5l10.5,0l10.5,0l0,-11.5l0,-11.5l-10.5,0l-10.5,0l0,11.5m0.269,18.193c0.973,0.254 2.323,0.237 3,-0.037c0.677,-0.274 -0.119,-0.481 -1.769,-0.461c-1.65,0.02 -2.204,0.244 -1.231,0.498m8.544,-0.01c0.721,0.289 1.584,0.253 1.916,-0.079c0.332,-0.332 -0.258,-0.568 -1.312,-0.525c-1.165,0.048 -1.402,0.285 -0.604,0.604m8.937,0.04c1.788,0.222 4.712,0.222 6.5,0c1.788,-0.221 0.325,-0.403 -3.25,-0.403c-3.575,0 -5.038,0.182 -3.25,0.403" fill="black" fill-opacity="0.505" fill-rule="evenodd"/>
  </symbol>
 </defs>
 <g class="layer">
  <title>Layer 1</title>
  <use id="svg_5" transform="matrix(0.159204 0 0 0.159204 0 0)" x="-26.695313" xlink:href="#svg_4" y="-3.925781"/>
  <g id="svg_6"/>
 </g>
</svg>